<?xml version="1.0" standalone="yes"?>

<svg version="1.1" viewBox="0.0 0.0 457.09711286089237 489.1128608923884" fill="none" stroke="none" stroke-linecap="square" stroke-miterlimit="10" xmlns="http://www.w3.org/2000/svg" xmlns:xlink="http://www.w3.org/1999/xlink"><clipPath id="p.0"><path d="m0 0l457.0971 0l0 489.11285l-457.0971 0l0 -489.11285z" clip-rule="nonzero"></path></clipPath><g clip-path="url(#p.0)"><path fill="#000000" fill-opacity="0.0" d="m0 0l457.0971 0l0 489.11285l-457.0971 0z" fill-rule="evenodd"></path><path fill="#000000" d="m456.7874 489.56955l-109.97894 -235.18109l-64.00531 0l109.97891 235.18109z" fill-rule="evenodd"></path><path fill="#000000" d="m305.4865 23.355917l0 0c66.47577 0.34301758 120.3418 55.072548 120.89252 122.83056c0.55075073 67.75801 -52.418243 123.389755 -118.87933 124.85542l-1.2553711 -59.145966c34.097717 -0.7792206 61.265045 -29.84076 60.977417 -65.22897c-0.28762817 -35.38822 -27.923492 -63.97016 -62.029022 -64.152534z" fill-rule="evenodd"></path><path fill="#000000" d="m255.63496 23.35433l51.81102 0l0 466.2047l-51.81102 0z" fill-rule="evenodd"></path><path fill="#000000" d="m38.280838 266.4567l101.88356 -244.37796l59.09282 0l-101.88356 244.37796z" fill-rule="evenodd"></path><path fill="#356b1a" d="m66.02886 402.41733l135.08661 -269.54333l135.08661 269.54333z" fill-rule="evenodd"></path><path fill="#356b1a" d="m177.92119 372.77167l46.362213 0l0 116.787384l-46.362213 0z" fill-rule="evenodd"></path><path fill="#000000" d="m0 23.35433l59.496063 0l0 466.2047l-59.496063 0z" fill-rule="evenodd"></path><path fill="#000000" d="m223.05511 489.56955l-109.97892 -235.18109l-64.005325 0l109.97893 235.18109z" fill-rule="evenodd"></path><path fill="#356b1a" d="m91.32284 266.4567l110.12203 -266.4567l109.43703 266.4567z" fill-rule="evenodd"></path></g></svg>

